<svg width="94" height="14" viewBox="0 0 94 14" fill="none" xmlns="http://www.w3.org/2000/svg">
<g clip-path="url(#clip0_1_401)">
<path d="M6.99984 9.68827L4.47617 11.0833L4.95817 8.12857L2.9165 6.03604L5.73822 5.60494L6.99984 2.91663L8.26145 5.60494L11.0832 6.03604L9.0415 8.12857L9.5235 11.0833L6.99984 9.68827Z" fill="#FFDD45" stroke="#FFDD45" stroke-width="3" stroke-linecap="square"/>
</g>
<g clip-path="url(#clip1_1_401)">
<path d="M26.9998 9.68827L24.4762 11.0833L24.9582 8.12857L22.9165 6.03604L25.7382 5.60494L26.9998 2.91663L28.2615 5.60494L31.0832 6.03604L29.0415 8.12857L29.5235 11.0833L26.9998 9.68827Z" fill="#FFDD45" stroke="#FFDD45" stroke-width="3" stroke-linecap="square"/>
</g>
<g clip-path="url(#clip2_1_401)">
<path d="M46.9998 9.68827L44.4762 11.0833L44.9582 8.12857L42.9165 6.03604L45.7382 5.60494L46.9998 2.91663L48.2615 5.60494L51.0832 6.03604L49.0415 8.12857L49.5235 11.0833L46.9998 9.68827Z" fill="#FFDD45" stroke="#FFDD45" stroke-width="3" stroke-linecap="square"/>
</g>
<g clip-path="url(#clip3_1_401)">
<path d="M66.9998 9.68827L64.4762 11.0833L64.9582 8.12857L62.9165 6.03604L65.7382 5.60494L66.9998 2.91663L68.2615 5.60494L71.0832 6.03604L69.0415 8.12857L69.5235 11.0833L66.9998 9.68827Z" fill="#FFDD45" stroke="#FFDD45" stroke-width="3" stroke-linecap="square"/>
</g>
<g clip-path="url(#clip4_1_401)">
<path d="M86.9998 9.68827L84.4762 11.0833L84.9582 8.12857L82.9165 6.03604L85.7382 5.60494L86.9998 2.91663L88.2615 5.60494L91.0832 6.03604L89.0415 8.12857L89.5235 11.0833L86.9998 9.68827Z" fill="#FFDD45" stroke="#FFDD45" stroke-width="3" stroke-linecap="square"/>
</g>
<defs>
<clipPath id="clip0_1_401">
<rect width="14" height="14" fill="white"/>
</clipPath>
<clipPath id="clip1_1_401">
<rect width="14" height="14" fill="white" transform="translate(20)"/>
</clipPath>
<clipPath id="clip2_1_401">
<rect width="14" height="14" fill="white" transform="translate(40)"/>
</clipPath>
<clipPath id="clip3_1_401">
<rect width="14" height="14" fill="white" transform="translate(60)"/>
</clipPath>
<clipPath id="clip4_1_401">
<rect width="14" height="14" fill="white" transform="translate(80)"/>
</clipPath>
</defs>
</svg>
